<svg version="1.1" id="Layer_1" xmlns="http://www.w3.org/2000/svg" xmlns:xlink="http://www.w3.org/1999/xlink" x="0px" y="0px"
	 width="100%" viewBox="0 0 180 180" enable-background="new 0 0 180 180" xml:space="preserve">
<path fill="#FDFCFB" opacity="1.000000" stroke="none" 
	d="
M115.000000,1.000000 
	C136.985229,1.000000 158.970444,1.000000 180.977844,1.000000 
	C180.977844,60.944920 180.977844,120.889847 180.977844,180.917389 
	C121.095474,180.917389 61.190792,180.917389 1.143056,180.917389 
	C1.143056,121.000237 1.143056,61.000168 1.143056,1.000000 
	C16.082666,1.000000 31.072676,1.000000 46.472134,1.377509 
	C48.732063,5.365503 50.211094,9.233247 52.500904,12.539460 
	C60.144779,23.576300 68.118057,34.384377 75.882065,45.338966 
	C78.803169,49.460491 81.497063,53.743061 83.856155,57.913742 
	C54.918171,55.181541 28.962746,60.777077 7.219969,80.866096 
	C12.413176,83.546730 17.488970,85.375206 22.641659,86.952484 
	C25.520687,87.833794 27.623590,87.130753 30.478148,85.062927 
	C36.972408,80.358513 44.183353,76.287277 51.653969,73.369156 
	C63.272758,68.830704 75.683105,68.420486 88.127258,69.286057 
	C88.179207,69.499207 88.342430,69.906487 88.112938,70.183594 
	C83.475037,74.155190 78.840805,77.617302 74.727089,81.615036 
	C71.207321,85.035568 67.446640,88.643372 65.267754,92.919968 
	C60.390938,102.491898 57.670185,112.794418 59.709053,123.704308 
	C61.227676,131.830399 63.119385,139.886780 64.491684,147.941055 
	C62.168320,147.033630 60.252899,145.984222 58.209084,145.345947 
	C56.820385,144.912292 54.654041,144.364365 53.859966,145.051498 
	C48.492115,149.696426 43.395260,154.655533 41.250488,162.102280 
	C43.198738,163.241714 44.981228,164.284195 47.234104,165.601791 
	C47.773731,163.097427 48.163967,161.286346 48.554207,159.475281 
	C47.475937,165.616928 49.733349,169.245911 56.191521,170.360580 
	C56.897133,170.728226 57.430325,170.877396 58.172176,171.343353 
	C60.599064,172.184036 62.817291,172.707947 65.227005,173.452881 
	C66.278130,174.116547 67.137764,174.559174 68.358498,174.916962 
	C70.453590,175.301605 72.187569,175.771088 74.103775,176.437866 
	C75.220291,176.732895 76.154587,176.830627 77.508827,176.984558 
	C84.218552,177.629272 90.508324,178.217789 97.233765,178.844604 
	C98.242027,178.772125 98.814621,178.661331 99.656387,178.597595 
	C100.564377,178.382904 101.203201,178.121140 102.176834,177.931244 
	C102.956299,178.102585 103.400970,178.202103 104.073990,178.481689 
	C104.864616,178.675293 105.426888,178.688797 106.299553,178.619354 
	C108.331169,177.418198 110.052391,176.299973 112.001678,175.464325 
	C113.290909,175.644089 114.511375,175.841278 115.381645,175.379074 
	C117.505196,174.251282 120.095612,171.277603 121.374146,171.799667 
	C125.062492,173.305695 127.072433,170.323959 130.173737,169.916687 
	C130.943314,169.761093 131.432419,169.583298 132.208160,169.272980 
	C132.987167,168.752365 133.479538,168.364258 134.318497,167.972244 
	C135.451523,167.326767 136.237961,166.685211 137.281433,165.792389 
	C139.883606,163.056717 141.925293,160.163101 144.626999,158.159531 
	C155.607437,150.016556 156.416260,137.960617 156.772507,126.065033 
	C156.941818,120.411163 154.938324,114.692215 154.006927,108.595573 
	C148.374863,84.234947 130.678619,72.452499 109.714195,63.991783 
	C110.583435,62.129322 111.189651,60.533707 111.966118,58.778671 
	C112.273262,58.035706 112.410164,57.452160 112.798691,56.735714 
	C113.307076,56.121834 113.563843,55.640854 114.007217,54.921021 
	C114.379219,53.905437 114.564613,53.128700 114.919342,52.007195 
	C118.495331,36.475517 118.793541,21.253540 115.663071,5.635919 
	C115.481476,3.853082 115.240738,2.426541 115.000000,1.000000 
M167.802643,76.412949 
	C174.163422,72.850166 175.781464,68.129684 173.360535,61.414371 
	C170.720367,54.090996 164.474655,50.309322 158.378128,46.990692 
	C152.929504,44.024746 146.643204,42.387215 140.551117,40.866055 
	C132.612762,38.883892 125.908455,42.168598 119.705902,46.982189 
	C131.378769,43.992481 137.575882,52.205948 144.381470,58.780842 
	C148.515503,62.774723 151.765671,67.744606 156.140335,71.407173 
	C159.140564,73.919044 163.391968,74.936470 167.802643,76.412949 
z"/>
<path fill="#F7F9F3" opacity="1.000000" stroke="none" 
	d="
M50.000000,1.000000 
	C69.020897,1.000000 88.041786,1.000000 107.462578,1.257145 
	C107.930359,1.678248 107.998238,1.842206 108.058350,2.403028 
	C108.827675,6.919380 109.604767,11.038867 110.341568,15.525217 
	C110.487434,16.598846 110.673599,17.305611 110.792053,18.346523 
	C110.822983,19.120842 110.921631,19.561014 110.953339,20.463169 
	C110.926285,25.616617 110.966179,30.308079 110.836731,35.324066 
	C107.283195,46.237892 100.205971,48.694958 90.545486,42.551826 
	C87.490631,40.609230 84.443565,38.614449 81.612076,36.367409 
	C69.051804,26.399702 57.381187,15.608706 50.000000,1.000000 
M78.269783,7.232063 
	C82.711166,16.122057 87.050560,25.066126 91.704643,33.843338 
	C92.397224,35.149494 94.732552,36.576973 96.022835,36.347244 
	C98.091812,35.978867 101.645393,34.174385 101.586891,33.146763 
	C101.015816,23.115398 99.824661,13.119335 98.706902,2.096557 
	C91.388481,3.660619 84.808418,5.066881 78.269783,7.232063 
z"/>
<path fill="#6D971A" opacity="1.000000" stroke="none" 
	d="
M49.625000,1.000000 
	C57.381187,15.608706 69.051804,26.399702 81.612076,36.367409 
	C84.443565,38.614449 87.490631,40.609230 90.545486,42.551826 
	C100.205971,48.694958 107.283195,46.237892 111.251144,35.307709 
	C114.579803,32.757423 115.072968,22.127966 112.478172,20.159687 
	C112.144264,19.906401 111.513527,20.044428 111.020287,20.001186 
	C110.921631,19.561014 110.822983,19.120842 111.157455,18.290443 
	C111.972633,17.323708 112.354675,16.747194 112.736725,16.170681 
	C111.951767,15.833240 111.166817,15.495798 110.381866,15.158356 
	C109.604767,11.038867 108.827675,6.919380 108.291412,2.401755 
	C108.532249,2.003618 108.999062,1.999874 109.218231,1.891653 
	C109.710472,1.583724 109.898003,1.322580 110.000000,1.000000 
	C110.444443,1.000000 110.888893,1.000000 111.703751,1.356472 
	C113.250748,3.139366 114.427338,4.565789 115.603928,5.992212 
	C118.793541,21.253540 118.495331,36.475517 114.512634,51.944786 
	C111.519669,53.110676 111.649429,54.094910 113.820602,55.159874 
	C113.563843,55.640854 113.307076,56.121834 112.506348,56.823040 
	C111.906876,57.674873 111.851364,58.306480 111.795868,58.938087 
	C111.189651,60.533707 110.583435,62.129322 109.535629,64.215912 
	C107.983200,67.095032 106.872360,69.483177 105.500793,72.002869 
	C104.554214,72.504539 103.868355,72.874672 103.010834,72.879700 
	C98.006927,71.645233 93.174683,70.775856 88.342430,69.906487 
	C88.342430,69.906487 88.179207,69.499207 88.172859,68.863464 
	C86.875854,64.802551 85.585190,61.377384 84.294533,57.952213 
	C81.497063,53.743061 78.803169,49.460491 75.882065,45.338966 
	C68.118057,34.384377 60.144779,23.576300 52.500904,12.539460 
	C50.211094,9.233247 48.732063,5.365503 46.940792,1.377509 
	C47.750000,1.000000 48.500000,1.000000 49.625000,1.000000 
z"/>
<path fill="#689312" opacity="1.000000" stroke="none" 
	d="
M115.663071,5.635917 
	C114.427338,4.565789 113.250748,3.139366 112.037079,1.356472 
	C112.750000,1.000000 113.500000,1.000000 114.625000,1.000000 
	C115.240738,2.426541 115.481476,3.853082 115.663071,5.635917 
z"/>
<path fill="#689312" opacity="1.000000" stroke="none" 
	d="
M109.750000,1.000000 
	C109.898003,1.322580 109.710472,1.583724 109.216660,1.641684 
	C108.995934,1.499937 109.000000,1.000000 109.000000,1.000000 
	C109.000000,1.000000 109.500000,1.000000 109.750000,1.000000 
z"/>
<path fill="#769D2B" opacity="1.000000" stroke="none" 
	d="
M108.750000,1.000000 
	C109.000000,1.000000 108.995934,1.499937 108.997498,1.749906 
	C108.999062,1.999874 108.532249,2.003618 108.299179,2.004891 
	C107.998238,1.842206 107.930359,1.678248 107.931236,1.257145 
	C108.000000,1.000000 108.500000,1.000000 108.750000,1.000000 
z"/>
<path fill="#EF8C21" opacity="1.000000" stroke="none" 
	d="
M153.919144,109.002747 
	C154.938324,114.692215 156.941818,120.411163 156.772507,126.065033 
	C156.416260,137.960617 155.607437,150.016556 144.626999,158.159531 
	C141.925293,160.163101 139.883606,163.056717 137.007080,165.553009 
	C136.115784,164.468460 135.755890,163.372009 135.395996,162.275558 
	C135.021347,162.312012 134.646698,162.348465 134.272049,162.384918 
	C134.172012,164.248657 134.071960,166.112411 133.971924,167.976166 
	C133.479538,168.364258 132.987167,168.752365 132.203369,168.835815 
	C131.911957,167.006699 131.911957,165.482193 131.911957,163.957703 
	C131.729752,163.970047 131.547546,163.982407 131.365341,163.994766 
	C130.874634,165.961334 130.383942,167.927902 129.893234,169.894470 
	C127.072433,170.323959 125.062492,173.305695 121.374146,171.799667 
	C120.095612,171.277603 117.505196,174.251282 115.381645,175.379074 
	C114.511375,175.841278 113.290909,175.644089 111.998535,175.071533 
	C110.534538,170.541626 109.301765,166.687103 107.990944,162.588547 
	C107.532738,165.194824 107.063240,167.865326 106.557060,170.744492 
	C105.293930,170.082825 104.140282,169.478500 101.842026,168.274597 
	C101.842026,172.065445 101.842026,174.962418 101.842026,177.859390 
	C101.203201,178.121140 100.564377,178.382904 99.543716,178.345352 
	C98.373962,178.299469 97.586029,178.552887 96.798103,178.806305 
	C90.508324,178.217789 84.218552,177.629272 77.342026,176.654205 
	C76.649651,175.527771 76.374619,174.766205 76.466217,174.051620 
	C77.009674,169.811722 77.638069,165.582733 78.237915,161.350067 
	C77.501823,161.253418 76.765732,161.156784 76.029633,161.060135 
	C75.326942,166.120270 74.624245,171.180420 73.921555,176.240555 
	C72.187569,175.771088 70.453590,175.301605 68.265198,174.496002 
	C66.746239,171.071594 70.541092,167.360016 66.618591,163.142776 
	C65.937859,167.481140 65.486694,170.356491 65.035522,173.231842 
	C62.817291,172.707947 60.599064,172.184036 58.282089,170.973511 
	C58.001083,167.390411 61.263283,164.307358 57.354137,160.135956 
	C56.787437,164.383392 56.403267,167.262756 56.019096,170.142120 
	C49.733349,169.245911 47.475937,165.616928 48.554207,159.475281 
	C48.163967,161.286346 47.773731,163.097427 47.234104,165.601791 
	C44.981228,164.284195 43.198738,163.241714 41.250488,162.102280 
	C43.395260,154.655533 48.492115,149.696426 53.859966,145.051498 
	C54.654041,144.364365 56.820385,144.912292 58.209084,145.345947 
	C60.252899,145.984222 62.168320,147.033630 64.578796,148.295914 
	C70.655029,150.783157 76.290909,152.882401 82.299324,155.128479 
	C85.590508,155.876495 88.512207,156.463257 91.427307,157.081192 
	C109.007599,160.807877 125.282875,157.891754 140.021835,147.422119 
	C148.612732,141.319672 153.748520,133.144928 153.826859,122.409042 
	C153.859192,117.979454 153.069443,113.543854 152.969711,109.080681 
	C153.496948,109.034492 153.708054,109.018623 153.919144,109.002747 
M94.563293,176.547989 
	C94.563293,176.547989 94.454453,176.625259 94.563293,176.547989 
z"/>
<path fill="#95C11F" opacity="1.000000" stroke="none" 
	d="
M81.926788,154.981628 
	C76.290909,152.882401 70.655029,150.783157 64.932037,148.329056 
	C63.119385,139.886780 61.227676,131.830399 59.709053,123.704308 
	C57.670185,112.794418 60.390938,102.491898 65.267754,92.919968 
	C67.446640,88.643372 71.207321,85.035568 74.727089,81.615036 
	C78.840805,77.617302 83.475037,74.155190 88.112938,70.183594 
	C93.174683,70.775856 98.006927,71.645233 102.960197,73.230171 
	C99.745682,79.642609 96.352814,85.306847 93.087540,91.043701 
	C87.671425,100.559433 81.675858,109.811607 81.912575,121.488312 
	C82.138824,132.648254 81.939217,143.816849 81.926788,154.981628 
z"/>
<path fill="#EF8A1A" opacity="1.000000" stroke="none" 
	d="
M83.856155,57.913742 
	C85.585190,61.377384 86.875854,64.802551 88.120911,68.650314 
	C75.683105,68.420486 63.272758,68.830704 51.653969,73.369156 
	C44.183353,76.287277 36.972408,80.358513 30.478148,85.062927 
	C27.623590,87.130753 25.520687,87.833794 22.641659,86.952484 
	C17.488970,85.375206 12.413176,83.546730 7.219969,80.866096 
	C28.962746,60.777077 54.918171,55.181541 83.856155,57.913742 
z"/>
<path fill="#84B122" opacity="1.000000" stroke="none" 
	d="
M167.443359,76.517441 
	C163.391968,74.936470 159.140564,73.919044 156.140335,71.407173 
	C151.765671,67.744606 148.515503,62.774723 144.381470,58.780842 
	C137.575882,52.205948 131.378769,43.992481 119.705902,46.982189 
	C125.908455,42.168598 132.612762,38.883892 140.551117,40.866055 
	C146.643204,42.387215 152.929504,44.024746 158.378128,46.990692 
	C164.474655,50.309322 170.720367,54.090996 173.360535,61.414371 
	C175.781464,68.129684 174.163422,72.850166 167.443359,76.517441 
z"/>
<path fill="#EE8C22" opacity="1.000000" stroke="none" 
	d="
M154.006927,108.595573 
	C153.708054,109.018623 153.496948,109.034492 152.711517,108.852707 
	C148.439346,97.405151 140.324173,89.515732 130.839264,83.528107 
	C123.108093,78.647575 114.166435,75.684578 105.761513,71.871330 
	C106.872360,69.483177 107.983200,67.095032 109.272606,64.482750 
	C130.678619,72.452499 148.374863,84.234947 154.006927,108.595573 
z"/>
<path fill="#F7D0A7" opacity="1.000000" stroke="none" 
	d="
M102.176834,177.931244 
	C101.842026,174.962418 101.842026,172.065445 101.842026,168.274597 
	C104.140282,169.478500 105.293930,170.082825 106.557060,170.744492 
	C107.063240,167.865326 107.532738,165.194824 107.990944,162.588547 
	C109.301765,166.687103 110.534538,170.541626 111.770462,174.788956 
	C110.052391,176.299973 108.331169,177.418198 106.246292,178.344452 
	C105.203636,178.202194 104.524635,178.251907 103.845634,178.301605 
	C103.400970,178.202103 102.956299,178.102585 102.176834,177.931244 
z"/>
<path fill="#F8D9B6" opacity="1.000000" stroke="none" 
	d="
M74.103775,176.437866 
	C74.624245,171.180420 75.326942,166.120270 76.029633,161.060135 
	C76.765732,161.156784 77.501823,161.253418 78.237915,161.350067 
	C77.638069,165.582733 77.009674,169.811722 76.466217,174.051620 
	C76.374619,174.766205 76.649651,175.527771 76.922089,176.597992 
	C76.154587,176.830627 75.220291,176.732895 74.103775,176.437866 
z"/>
<path fill="#F6CDA1" opacity="1.000000" stroke="none" 
	d="
M65.227005,173.452881 
	C65.486694,170.356491 65.937859,167.481140 66.618591,163.142776 
	C70.541092,167.360016 66.746239,171.071594 67.904083,174.580841 
	C67.137764,174.559174 66.278130,174.116547 65.227005,173.452881 
z"/>
<path fill="#F6CA9A" opacity="1.000000" stroke="none" 
	d="
M56.191521,170.360580 
	C56.403267,167.262756 56.787437,164.383392 57.354137,160.135956 
	C61.263283,164.307358 58.001083,167.390411 58.073429,170.656723 
	C57.430325,170.877396 56.897133,170.728226 56.191521,170.360580 
z"/>
<path fill="#F6CB9E" opacity="1.000000" stroke="none" 
	d="
M134.318497,167.972244 
	C134.071960,166.112411 134.172012,164.248657 134.272049,162.384918 
	C134.646698,162.348465 135.021347,162.312012 135.395996,162.275558 
	C135.755890,163.372009 136.115784,164.468460 136.750031,165.804276 
	C136.237961,166.685211 135.451523,167.326767 134.318497,167.972244 
z"/>
<path fill="#F6CB9E" opacity="1.000000" stroke="none" 
	d="
M130.173737,169.916687 
	C130.383942,167.927902 130.874634,165.961334 131.365341,163.994766 
	C131.547546,163.982407 131.729752,163.970047 131.911957,163.957703 
	C131.911957,165.482193 131.911957,167.006699 131.916748,168.968353 
	C131.432419,169.583298 130.943314,169.761093 130.173737,169.916687 
z"/>
<path fill="#769D2B" opacity="1.000000" stroke="none" 
	d="
M114.007217,54.921024 
	C111.649429,54.094910 111.519669,53.110676 114.343292,52.289555 
	C114.564613,53.128700 114.379219,53.905437 114.007217,54.921024 
z"/>
<path fill="#F7D1A8" opacity="1.000000" stroke="none" 
	d="
M104.073990,178.481689 
	C104.524635,178.251907 105.203636,178.202194 105.935898,178.427399 
	C105.426888,178.688797 104.864616,178.675293 104.073990,178.481689 
z"/>
<path fill="#F7D1A8" opacity="1.000000" stroke="none" 
	d="
M97.233765,178.844604 
	C97.586029,178.552887 98.373962,178.299469 99.274551,178.298279 
	C98.814621,178.661331 98.242027,178.772125 97.233765,178.844604 
z"/>
<path fill="#769D2B" opacity="1.000000" stroke="none" 
	d="
M111.966110,58.778671 
	C111.851364,58.306480 111.906876,57.674873 112.254723,56.955940 
	C112.410164,57.452160 112.273262,58.035706 111.966110,58.778671 
z"/>
<path fill="#8DB922" opacity="1.000000" stroke="none" 
	d="
M78.249069,6.852603 
	C84.808418,5.066881 91.388481,3.660619 98.706902,2.096557 
	C99.824661,13.119335 101.015816,23.115398 101.586891,33.146763 
	C101.645393,34.174385 98.091812,35.978867 96.022835,36.347244 
	C94.732552,36.576973 92.397224,35.149494 91.704643,33.843338 
	C87.050560,25.066126 82.711166,16.122057 78.249069,6.852603 
z"/>
<path fill="#689312" opacity="1.000000" stroke="none" 
	d="
M110.953339,20.463169 
	C111.513527,20.044428 112.144264,19.906401 112.478172,20.159687 
	C115.072968,22.127966 114.579803,32.757423 111.420486,34.983185 
	C110.966179,30.308079 110.926285,25.616617 110.953339,20.463169 
z"/>
<path fill="#689312" opacity="1.000000" stroke="none" 
	d="
M110.341568,15.525218 
	C111.166817,15.495798 111.951767,15.833240 112.736725,16.170681 
	C112.354675,16.747194 111.972633,17.323708 111.225174,17.956297 
	C110.673599,17.305611 110.487434,16.598846 110.341568,15.525218 
z"/>
<path fill="#F8F6F0" opacity="1.000000" stroke="none" 
	d="
M105.500793,72.002869 
	C114.166435,75.684578 123.108093,78.647575 130.839264,83.528107 
	C140.324173,89.515732 148.439346,97.405151 152.395416,108.883011 
	C153.069443,113.543854 153.859192,117.979454 153.826859,122.409042 
	C153.748520,133.144928 148.612732,141.319672 140.021835,147.422119 
	C125.282875,157.891754 109.007599,160.807877 91.427307,157.081192 
	C88.512207,156.463257 85.590508,155.876495 82.299332,155.128479 
	C81.939217,143.816849 82.138824,132.648254 81.912575,121.488312 
	C81.675858,109.811607 87.671425,100.559433 93.087540,91.043701 
	C96.352814,85.306847 99.745682,79.642609 103.131851,73.595276 
	C103.868355,72.874672 104.554214,72.504539 105.500793,72.002869 
M131.016922,97.625877 
	C128.403702,94.671272 129.384583,99.536407 127.401581,98.818306 
	C127.166100,98.530983 126.930611,98.243652 126.749283,97.170815 
	C126.911819,90.810364 123.336357,86.718521 117.817352,84.996750 
	C112.563133,83.357574 106.901337,83.024818 101.418739,82.117699 
	C101.095551,82.831322 100.772362,83.544945 100.449165,84.258575 
	C101.175484,84.607811 101.901802,84.957047 102.808952,85.960091 
	C105.228096,88.646858 107.647232,91.333618 109.875687,94.691795 
	C107.887535,95.965736 105.662491,96.992996 103.991798,98.597488 
	C102.813446,99.729149 102.387428,101.644173 101.847466,103.874992 
	C103.048805,104.926125 104.250137,105.977264 105.070221,107.446091 
	C104.924973,107.791527 104.779724,108.136971 104.011162,108.728241 
	C103.483040,109.852325 102.954918,110.976402 102.164673,112.700966 
	C102.110153,113.132858 102.055634,113.564751 101.221016,113.991905 
	C99.768005,114.640137 98.314995,115.288368 96.459084,116.498581 
	C95.837624,118.321899 95.216156,120.145218 94.265625,122.782921 
	C94.231087,124.426102 94.774597,126.394196 94.064445,127.657631 
	C90.512215,133.977463 93.923080,138.448242 97.767670,143.736877 
	C99.871521,144.778961 101.888466,146.083313 104.095314,146.814529 
	C111.035942,149.114273 118.031021,152.243103 125.796211,147.091019 
	C126.733894,146.177353 127.671570,145.263687 129.278397,144.232132 
	C130.855835,143.772385 132.433273,143.312637 134.736267,142.969482 
	C136.071564,140.640198 137.406860,138.310928 138.859863,135.193756 
	C139.170502,131.799286 139.481155,128.404816 140.120651,124.391716 
	C142.384491,119.349075 136.490585,122.247749 135.767715,119.324089 
	C135.563507,118.213387 135.359283,117.102692 135.756180,115.749237 
	C136.876648,115.160591 137.997131,114.571945 139.828674,114.062309 
	C141.508026,116.460884 143.187378,118.859451 144.866730,121.258018 
	C145.294373,121.187546 145.722000,121.117073 146.149643,121.046600 
	C146.149643,117.914825 146.135864,114.782974 146.152496,111.651291 
	C146.188095,104.948929 143.148346,100.628929 136.116409,98.089470 
	C134.457611,98.148941 132.798798,98.208405 131.016922,97.625877 
z"/>
<path fill="#F7D1A8" opacity="1.000000" stroke="none" 
	d="
M94.508873,176.586624 
	C94.454453,176.625259 94.563293,176.547989 94.508873,176.586624 
z"/>
<path fill="#C2B634" opacity="1.000000" stroke="none" 
	d="
M97.637810,142.941010 
	C93.923080,138.448242 90.512215,133.977463 94.064445,127.657631 
	C94.774597,126.394196 94.231087,124.426102 94.671837,122.402977 
	C95.725800,122.541237 96.373558,123.059448 96.989090,124.018692 
	C98.486946,127.378014 92.665550,130.575287 97.087830,133.187057 
	C100.037659,134.929199 103.379723,136.020081 106.581261,137.315887 
	C107.637878,137.743561 108.804001,137.900696 110.180283,138.420349 
	C114.957329,140.058685 119.474144,141.458221 124.381821,142.944397 
	C126.051529,143.470688 127.330391,143.910355 128.609253,144.350021 
	C127.671570,145.263687 126.733894,146.177353 125.185898,146.820740 
	C115.596321,145.347321 106.617065,144.144165 97.637810,142.941010 
z"/>
<path fill="#F0EC87" opacity="1.000000" stroke="none" 
	d="
M139.117615,113.983292 
	C137.997131,114.571945 136.876648,115.160591 135.126099,115.952072 
	C129.650787,114.797806 124.805565,113.440712 119.670547,111.925827 
	C118.577240,110.850807 117.773727,109.933556 117.295250,108.847305 
	C118.102913,106.608383 118.585541,104.538460 119.171173,102.026756 
	C120.640083,102.132149 122.492844,101.971741 124.151733,102.464279 
	C125.910156,102.986359 127.484375,104.128876 129.480225,105.165489 
	C131.598068,105.538879 133.374741,105.747192 135.108643,105.976746 
	C135.065887,105.997978 135.016083,105.916534 135.094299,106.143311 
	C135.344116,106.649361 135.572540,106.869774 136.027283,107.064133 
	C136.196793,107.096954 136.539185,107.141617 136.623962,107.506622 
	C137.511703,109.908844 138.314651,111.946075 139.117615,113.983292 
z"/>
<path fill="#F2A41B" opacity="1.000000" stroke="none" 
	d="
M139.791794,125.010338 
	C139.481155,128.404816 139.170502,131.799286 138.398880,135.623871 
	C133.620071,135.431320 129.302246,134.808655 124.718445,134.079346 
	C123.972771,133.661804 123.493088,133.350937 122.780167,132.760529 
	C121.350975,132.330246 120.155014,132.179504 118.724548,132.001129 
	C118.490044,131.973495 118.061920,131.774170 118.008385,131.434189 
	C115.941505,127.430916 113.928154,123.767624 112.272957,120.071274 
	C113.747673,120.364601 114.864243,120.690994 116.040909,121.360794 
	C118.419685,123.150856 120.673439,124.717079 123.070839,126.018723 
	C127.735970,128.551590 132.444183,131.041458 137.029510,125.692963 
	C137.531998,125.106834 138.851318,125.220985 139.791794,125.010338 
z"/>
<path fill="#E7821A" opacity="1.000000" stroke="none" 
	d="
M111.914803,120.104340 
	C113.928154,123.767624 115.941505,127.430916 117.646225,131.464172 
	C114.833496,130.944138 112.329391,130.054123 109.588272,128.981628 
	C108.611000,128.525375 107.870743,128.251602 106.893158,127.715164 
	C105.086472,126.993835 103.517113,126.535164 101.663849,125.887016 
	C99.927055,124.990906 98.474182,124.284279 97.021309,123.577652 
	C96.373558,123.059448 95.725800,122.541237 94.836365,121.995789 
	C95.216156,120.145218 95.837624,118.321899 97.056091,116.270035 
	C102.407005,117.395775 107.160904,118.750061 111.914803,120.104340 
z"/>
<path fill="#5E6E16" opacity="1.000000" stroke="none" 
	d="
M102.628113,85.306290 
	C101.901802,84.957047 101.175484,84.607811 100.449165,84.258575 
	C100.772362,83.544945 101.095551,82.831322 101.418739,82.117699 
	C106.901337,83.024818 112.563133,83.357574 117.817352,84.996750 
	C123.336357,86.718521 126.911819,90.810364 126.381210,97.501678 
	C125.328552,97.773048 124.643974,97.713562 123.821350,97.388626 
	C123.045303,96.519638 122.407288,95.916092 121.769279,95.312538 
	C121.167702,96.139755 120.566132,96.966980 119.624603,97.846359 
	C118.827026,97.939621 118.369423,97.980736 117.740448,97.877411 
	C117.311539,97.570450 117.103973,97.358887 117.002960,96.708191 
	C119.226501,89.237297 119.226501,89.237297 117.002945,87.709290 
	C115.508156,88.935127 114.193420,90.013321 112.534317,91.047989 
	C109.002678,89.105080 105.815392,87.205688 102.628113,85.306290 
z"/>
<path fill="#525E17" opacity="1.000000" stroke="none" 
	d="
M139.473145,114.022804 
	C138.314651,111.946075 137.511703,109.908844 137.003448,107.479385 
	C138.435287,107.193024 139.572403,107.298889 141.086578,107.439865 
	C139.461960,104.020630 138.111816,101.179054 136.761673,98.337471 
	C143.148346,100.628929 146.188095,104.948929 146.152496,111.651291 
	C146.135864,114.782974 146.149643,117.914825 146.149643,121.046600 
	C145.722000,121.117073 145.294373,121.187546 144.866730,121.258018 
	C143.187378,118.859451 141.508026,116.460884 139.473145,114.022804 
z"/>
<path fill="#F4D222" opacity="1.000000" stroke="none" 
	d="
M119.960335,112.083611 
	C124.805565,113.440712 129.650787,114.797806 134.825546,116.073448 
	C135.359283,117.102692 135.563507,118.213387 135.511292,119.715088 
	C134.830841,120.725464 134.406830,121.344841 133.582428,121.978210 
	C131.125198,121.657875 129.068359,121.323547 127.005753,120.994614 
	C127.000000,121.000000 127.011276,120.988693 127.009384,120.761688 
	C127.007484,120.534676 127.014374,120.080452 127.213837,119.873337 
	C126.349335,118.532730 125.435135,117.188057 124.192329,116.306740 
	C120.919594,113.985947 119.073082,114.783325 118.730949,119.005241 
	C115.894714,118.687202 113.487251,118.352463 110.935486,117.703316 
	C111.162926,116.601540 111.337692,115.371849 111.940529,115.103401 
	C114.545471,113.943375 117.275696,113.064674 119.960335,112.083611 
z"/>
<path fill="#D2CB2C" opacity="1.000000" stroke="none" 
	d="
M116.946404,97.098282 
	C117.103973,97.358887 117.311539,97.570450 117.708763,98.230431 
	C116.714729,99.463432 115.581009,100.198967 114.418968,100.952881 
	C114.950073,103.620789 115.483582,106.300697 115.783127,109.253357 
	C112.183273,108.693542 108.817375,107.860970 105.451477,107.028397 
	C104.250137,105.977264 103.048805,104.926125 102.018333,103.262459 
	C106.508881,100.792969 110.828560,98.936020 115.446548,97.074356 
	C116.145370,97.079185 116.545883,97.088730 116.946404,97.098282 
z"/>
<path fill="#9C060B" opacity="1.000000" stroke="none" 
	d="
M109.825279,129.164108 
	C112.329391,130.054123 114.833496,130.944138 117.699768,131.804169 
	C118.061920,131.774170 118.490044,131.973495 118.964722,132.273834 
	C120.630737,132.729462 121.822067,132.884766 123.013397,133.040070 
	C123.493088,133.350937 123.972771,133.661804 124.772934,134.431564 
	C128.065842,137.544586 131.038284,140.198730 134.010712,142.852875 
	C132.433273,143.312637 130.855835,143.772385 128.943817,144.291077 
	C127.330391,143.910355 126.051529,143.470688 124.383797,142.543869 
	C124.581390,139.113785 122.707314,138.340042 120.454659,137.135483 
	C116.707390,135.131744 113.370033,132.361404 109.854752,129.726288 
	C109.849449,129.538681 109.825279,129.164108 109.825279,129.164108 
z"/>
<path fill="#F4B81A" opacity="1.000000" stroke="none" 
	d="
M133.982803,121.964218 
	C134.406830,121.344841 134.830841,120.725464 135.559387,120.062515 
	C136.490585,122.247749 142.384491,119.349075 139.956223,124.701027 
	C138.851318,125.220985 137.531998,125.106834 137.029510,125.692963 
	C132.444183,131.041458 127.735970,128.551590 123.070839,126.018723 
	C120.673439,124.717079 118.419685,123.150856 116.435036,121.399323 
	C120.170502,121.746727 123.571960,122.398994 127.209579,123.291916 
	C129.624771,123.009789 131.803787,122.487007 133.982803,121.964218 
z"/>
<path fill="#EAB916" opacity="1.000000" stroke="none" 
	d="
M105.260849,107.237244 
	C108.817375,107.860970 112.183273,108.693542 116.020844,109.275070 
	C116.492508,109.024040 116.970215,109.016304 116.970215,109.016304 
	C117.773727,109.933556 118.577240,110.850807 119.670547,111.925827 
	C117.275696,113.064674 114.545471,113.943375 111.940529,115.103401 
	C111.337692,115.371849 111.162926,116.601540 110.556335,117.666595 
	C107.548035,116.628403 104.774574,115.312523 102.001114,113.996643 
	C102.055634,113.564751 102.110153,113.132858 102.620865,112.311378 
	C103.596199,110.775330 104.115341,109.628868 104.634476,108.482407 
	C104.779724,108.136971 104.924973,107.791527 105.260849,107.237244 
z"/>
<path fill="#B1AE2E" opacity="1.000000" stroke="none" 
	d="
M97.702744,143.338959 
	C106.617065,144.144165 115.596321,145.347321 124.853806,146.877167 
	C118.031021,152.243103 111.035942,149.114273 104.095314,146.814529 
	C101.888466,146.083313 99.871521,144.778961 97.702744,143.338959 
z"/>
<path fill="#E3E16F" opacity="1.000000" stroke="none" 
	d="
M117.295250,108.847305 
	C116.970215,109.016304 116.492508,109.024040 116.254791,109.002327 
	C115.483582,106.300697 114.950073,103.620789 114.418968,100.952881 
	C115.581009,100.198967 116.714729,99.463432 117.880127,98.374870 
	C118.369423,97.980736 118.827026,97.939621 120.022659,97.903015 
	C121.826920,97.823051 122.893158,97.738564 123.959389,97.654076 
	C124.643974,97.713562 125.328552,97.773048 126.354134,97.894432 
	C126.930611,98.243652 127.166100,98.530983 127.698524,99.319382 
	C128.376663,101.547119 128.757843,103.273766 129.139038,105.000420 
	C127.484375,104.128876 125.910156,102.986359 124.151733,102.464279 
	C122.492844,101.971741 120.640083,102.132149 119.171173,102.026756 
	C118.585541,104.538460 118.102913,106.608383 117.295250,108.847305 
z"/>
<path fill="#ECBE4A" opacity="1.000000" stroke="none" 
	d="
M101.611069,113.994278 
	C104.774574,115.312523 107.548035,116.628403 110.700638,117.981003 
	C113.487251,118.352463 115.894714,118.687202 119.092743,119.062408 
	C121.598564,119.433266 123.313820,119.763657 125.202896,120.321350 
	C125.921570,120.695320 126.466423,120.842003 127.011276,120.988693 
	C127.011276,120.988693 127.000000,121.000000 127.000595,121.338158 
	C126.991920,122.134628 126.982658,122.592949 126.973404,123.051262 
	C123.571960,122.398994 120.170502,121.746727 116.374924,121.055923 
	C114.864243,120.690994 113.747673,120.364601 112.272957,120.071274 
	C107.160904,118.750061 102.407005,117.395775 97.257553,115.989044 
	C98.314995,115.288368 99.768005,114.640137 101.611069,113.994278 
z"/>
<path fill="#A8080E" opacity="1.000000" stroke="none" 
	d="
M134.373489,142.911179 
	C131.038284,140.198730 128.065842,137.544586 125.038910,134.538239 
	C129.302246,134.808655 133.620071,135.431320 138.340027,136.017822 
	C137.406860,138.310928 136.071564,140.640198 134.373489,142.911179 
z"/>
<path fill="#D4D279" opacity="1.000000" stroke="none" 
	d="
M115.148247,97.079071 
	C110.828560,98.936020 106.508881,100.792969 101.907364,102.929688 
	C102.387428,101.644173 102.813446,99.729149 103.991798,98.597488 
	C105.662491,96.992996 107.887535,95.965736 110.273064,94.382401 
	C111.074875,94.087700 111.479309,94.102409 112.049553,94.383362 
	C113.192993,95.459435 114.170616,96.269249 115.148247,97.079071 
z"/>
<path fill="#EFEEE3" opacity="1.000000" stroke="none" 
	d="
M129.480225,105.165489 
	C128.757843,103.273766 128.376663,101.547119 127.951729,99.437637 
	C129.384583,99.536407 128.403702,94.671272 131.285812,98.198410 
	C132.753601,101.165802 133.952515,103.560654 135.151413,105.955513 
	C133.374741,105.747192 131.598068,105.538879 129.480225,105.165489 
z"/>
<path fill="#6D7724" opacity="1.000000" stroke="none" 
	d="
M135.108643,105.976746 
	C133.952515,103.560654 132.753601,101.165802 131.347351,98.519409 
	C132.798798,98.208405 134.457611,98.148941 136.439041,98.213470 
	C138.111816,101.179054 139.461960,104.020630 141.086578,107.439865 
	C139.572403,107.298889 138.435287,107.193024 136.918671,107.114388 
	C136.539185,107.141617 136.196793,107.096954 136.056305,106.801712 
	C135.949173,106.333817 135.982529,106.161163 136.146637,105.928238 
	C136.189392,105.905823 136.101395,105.943665 135.768158,105.902481 
	C135.353973,105.854485 135.185028,105.885513 135.016083,105.916534 
	C135.016083,105.916534 135.065887,105.997978 135.108643,105.976746 
z"/>
<path fill="#88985A" opacity="1.000000" stroke="none" 
	d="
M111.883743,94.117111 
	C111.479309,94.102409 111.074875,94.087700 110.368408,94.046692 
	C107.647232,91.333618 105.228096,88.646858 102.718529,85.633194 
	C105.815392,87.205688 109.002678,89.105080 112.539856,91.368973 
	C112.554420,92.528015 112.219086,93.322563 111.883743,94.117111 
z"/>
<path fill="#ECBE4A" opacity="1.000000" stroke="none" 
	d="
M104.322823,108.605324 
	C104.115341,109.628868 103.596199,110.775330 102.751923,112.011139 
	C102.954918,110.976402 103.483040,109.852325 104.322823,108.605324 
z"/>
<path fill="#6D1310" opacity="1.000000" stroke="none" 
	d="
M109.588272,128.981628 
	C109.825279,129.164108 109.849449,129.538681 109.517471,129.823578 
	C109.430344,132.799484 109.675201,135.490509 109.920052,138.181534 
	C108.804001,137.900696 107.637878,137.743561 106.581261,137.315887 
	C103.379723,136.020081 100.037659,134.929199 97.087830,133.187057 
	C92.665550,130.575287 98.486946,127.378014 96.989090,124.018692 
	C98.474182,124.284279 99.927055,124.990906 101.855606,126.195786 
	C103.931023,127.121971 105.530754,127.549904 107.130486,127.977829 
	C107.870743,128.251602 108.611000,128.525375 109.588272,128.981628 
z"/>
<path fill="#880A09" opacity="1.000000" stroke="none" 
	d="
M110.180283,138.420349 
	C109.675201,135.490509 109.430344,132.799484 109.522774,130.011185 
	C113.370033,132.361404 116.707390,135.131744 120.454659,137.135483 
	C122.707314,138.340042 124.581390,139.113785 123.992935,142.457245 
	C119.474144,141.458221 114.957329,140.058685 110.180283,138.420349 
z"/>
<path fill="#EFEEE3" opacity="1.000000" stroke="none" 
	d="
M135.094299,106.143311 
	C135.185028,105.885513 135.353973,105.854485 135.761200,105.911179 
	C135.999481,105.998917 136.015884,105.988510 136.015884,105.988510 
	C135.982529,106.161163 135.949173,106.333817 135.886780,106.768898 
	C135.572540,106.869774 135.344116,106.649361 135.094299,106.143311 
z"/>
<path fill="#E7821A" opacity="1.000000" stroke="none" 
	d="
M122.780167,132.760529 
	C121.822067,132.884766 120.630737,132.729462 119.199234,132.301453 
	C120.155014,132.179504 121.350975,132.330246 122.780167,132.760529 
z"/>
<path fill="#880A09" opacity="1.000000" stroke="none" 
	d="
M106.893158,127.715164 
	C105.530754,127.549904 103.931023,127.121971 102.139526,126.385269 
	C103.517113,126.535164 105.086472,126.993835 106.893158,127.715164 
z"/>
<path fill="#778926" opacity="1.000000" stroke="none" 
	d="
M112.049561,94.383362 
	C112.219086,93.322563 112.554420,92.528015 112.884216,91.412483 
	C114.193420,90.013321 115.508156,88.935127 117.002945,87.709290 
	C119.226501,89.237297 119.226501,89.237297 117.002960,96.708191 
	C116.545883,97.088730 116.145370,97.079185 115.446548,97.074356 
	C114.170616,96.269249 113.192993,95.459435 112.049561,94.383362 
z"/>
<path fill="#778926" opacity="1.000000" stroke="none" 
	d="
M123.821350,97.388626 
	C122.893158,97.738564 121.826920,97.823051 120.362625,97.850868 
	C120.566132,96.966980 121.167702,96.139755 121.769279,95.312538 
	C122.407288,95.916092 123.045303,96.519638 123.821350,97.388626 
z"/>
<path fill="#F6E751" opacity="1.000000" stroke="none" 
	d="
M125.029068,120.094055 
	C123.313820,119.763657 121.598564,119.433266 119.521515,119.045708 
	C119.073082,114.783325 120.919594,113.985947 124.192329,116.306740 
	C125.435135,117.188057 126.349335,118.532730 126.882545,119.854248 
	C125.910881,120.059532 125.469971,120.076797 125.029068,120.094055 
z"/>
<path fill="#F0C146" opacity="1.000000" stroke="none" 
	d="
M127.209579,123.291916 
	C126.982658,122.592949 126.991920,122.134628 127.006348,121.332764 
	C129.068359,121.323547 131.125198,121.657875 133.582428,121.978210 
	C131.803787,122.487007 129.624771,123.009789 127.209579,123.291916 
z"/>
<path fill="#F0C146" opacity="1.000000" stroke="none" 
	d="
M125.202896,120.321350 
	C125.469971,120.076797 125.910881,120.059532 126.683075,120.061363 
	C127.014374,120.080452 127.007484,120.534676 127.009384,120.761681 
	C126.466423,120.842003 125.921570,120.695320 125.202896,120.321350 
z"/>
<path fill="#525E17" opacity="1.000000" stroke="none" 
	d="
M136.006439,105.990219 
	C136.101395,105.943665 136.189392,105.905823 136.146637,105.928238 
	C136.015884,105.988510 135.999481,105.998917 136.006439,105.990219 
z"/>
</svg>